<?xml version="1.0" encoding="UTF-8" standalone="no"?>
<!-- Generator: Adobe Illustrator 26.5.0, SVG Export Plug-In . SVG Version: 6.00 Build 0)  -->

<svg
   version="1.1"
   x="0px"
   y="0px"
   viewBox="0 0 400 400"
   style="enable-background:new 0 0 400 400;"
   xml:space="preserve"
   id="svg18"
   sodipodi:docname="square-reversed-fixed-large-rounded.svg"
   inkscape:version="1.3.2 (091e20ef0f, 2023-11-25)"
   xmlns:inkscape="http://www.inkscape.org/namespaces/inkscape"
   xmlns:sodipodi="http://sodipodi.sourceforge.net/DTD/sodipodi-0.dtd"
   xmlns="http://www.w3.org/2000/svg"
   xmlns:svg="http://www.w3.org/2000/svg"><defs
   id="defs18"><linearGradient
     id="SVGID_00000134226740407654928070000009802432056583808703_"
     gradientUnits="userSpaceOnUse"
     x1="44.342499"
     y1="108.4131"
     x2="446.98651"
     y2="511.0571"
     gradientTransform="matrix(0.38932292,0,0,0.38958333,100.48333,47.033334)">
						<stop
   offset="0"
   style="stop-color:#3AE7E1"
   id="stop6-6" />
						<stop
   offset="0.9481"
   style="stop-color:#1993D2"
   id="stop7-7" />
					</linearGradient><linearGradient
     id="SVGID_1_-3"
     gradientUnits="userSpaceOnUse"
     x1="117.53"
     y1="89.213699"
     x2="274.44189"
     y2="246.1257"
     gradientTransform="translate(0,-0.01)">
							<stop
   offset="0"
   style="stop-color:#3AE7E1"
   id="stop1-5" />
							<stop
   offset="0.9481"
   style="stop-color:#1993D2"
   id="stop2-6" />
						</linearGradient><linearGradient
     id="SVGID_00000119810016000650835400000009893919275913320374_"
     gradientUnits="userSpaceOnUse"
     x1="162.1106"
     y1="44.644402"
     x2="319.0361"
     y2="201.5699"
     gradientTransform="translate(0,0.188)">
								<stop
   offset="0"
   style="stop-color:#3AE7E1"
   id="stop3-2" />
								<stop
   offset="0.9481"
   style="stop-color:#1993D2"
   id="stop4-9" />
							</linearGradient><linearGradient
     id="SVGID_00000125602670727952837290000015116344184315268780_"
     gradientUnits="userSpaceOnUse"
     x1="117.5171"
     y1="89.228302"
     x2="274.42291"
     y2="246.13409">
							<stop
   offset="0"
   style="stop-color:#3AE7E1"
   id="stop6-1" />
							<stop
   offset="0.9481"
   style="stop-color:#1993D2"
   id="stop7-2" />
						</linearGradient><linearGradient
     id="SVGID_00000134226740407654928070000009802432056583808703_-7"
     gradientUnits="userSpaceOnUse"
     x1="44.342499"
     y1="108.4131"
     x2="446.98651"
     y2="511.0571"
     gradientTransform="matrix(0.38932292,0,0,0.38958333,100.39333,47.103334)">
						<stop
   offset="0"
   style="stop-color:#3AE7E1"
   id="stop6-6-0" />
						<stop
   offset="0.9481"
   style="stop-color:#1993D2"
   id="stop7-7-9" />
					</linearGradient></defs><sodipodi:namedview
   id="namedview18"
   pagecolor="#ffffff"
   bordercolor="#000000"
   borderopacity="0.25"
   inkscape:showpageshadow="2"
   inkscape:pageopacity="0.0"
   inkscape:pagecheckerboard="0"
   inkscape:deskcolor="#d1d1d1"
   inkscape:zoom="3.2986532"
   inkscape:cx="201.90058"
   inkscape:cy="151.27386"
   inkscape:window-width="2552"
   inkscape:window-height="2811"
   inkscape:window-x="4"
   inkscape:window-y="28"
   inkscape:window-maximized="0"
   inkscape:current-layer="svg18" />
<style
   type="text/css"
   id="style1">
	.st0{fill:#19216C;}
	.st1{fill:#2D7AAE;}
	.st2{fill:url(#SVGID_1_);}
	.st3{fill:url(#SVGID_00000091712149328052275680000009108046490295236769_);}
	.st4{fill:url(#SVGID_00000106862899603986733670000013393935681574779041_);}
	.st5{fill:#F5F7FA;}
	.st6{fill:url(#SVGID_00000163778898918928570170000003462324694777460628_);}
</style>
<g
   id="Layer_2"
   style="display:inline">
	<rect
   class="st0"
   width="400"
   height="400"
   id="rect1"
   x="0"
   y="0"
   ry="70.680389" />
</g>
<g
   id="Layer_1">
	<g
   id="g18">
		
		
	<g
   id="g11-3"
   transform="matrix(1.7461701,0,0,1.7461701,-149.31258,-56.398275)"
   inkscape:label="g11">
		<g
   id="g10-6">
			<g
   id="g9-0">
				<g
   id="g8-6">
					<g
   id="g2-2">
						<path
   class="st0"
   d="m 249.9,159.2 c 0,9.2 -5,17.3 -12.5,21.6 v 3.4 12.5 c 0,6.9 -5.6,12.5 -12.5,12.5 8.8,0 17,-2.3 24.1,-6.2 0.5,-2 0.8,-4.1 0.8,-6.2 v -37.6 z"
   id="path1"
   style="display:none;fill:#2d7aae" /><path
   class="st0"
   d="m 249.897,159.185 c 0,9.25781 -5.03906,17.30469 -12.5,21.64062 v 3.35938 12.5 c 0,6.91406 -5.58594,12.5 -12.5,12.5 8.78906,0 16.99219,-2.26563 24.17969,-6.25 0.50781,-1.99219 0.82031,-4.10156 0.82031,-6.25 z"
   id="path1-3-6"
   style="display:inline;fill:#2d7aae;stroke-width:0.390625"
   inkscape:label="path1" />
						<linearGradient
   id="linearGradient8"
   gradientUnits="userSpaceOnUse"
   x1="117.53"
   y1="89.213699"
   x2="274.44189"
   y2="246.1257"
   gradientTransform="translate(0,-0.01)">
							<stop
   offset="0"
   style="stop-color:#3AE7E1"
   id="stop5" />
							<stop
   offset="0.9481"
   style="stop-color:#1993D2"
   id="stop8" />
						</linearGradient>
						<path
   class="st1"
   d="M 224.9,134.29 H 175 c -6.9,0 -12.5,5.6 -12.5,12.5 v 49.9 c 0,6.9 5.6,12.5 12.5,12.5 h 49.9 c 6.9,0 12.5,-5.6 12.5,-12.5 v -12.5 -3.4 -34 c 0,-6.9 -5.6,-12.5 -12.5,-12.5 z m -12.4,49.9 h -24.9 v -24.9 h 24.9 z"
   id="path2-1"
   style="fill:url(#SVGID_1_-3)" />
					</g>
					<g
   id="g7-8">
						<g
   id="g6-7">
							
								<linearGradient
   id="linearGradient10"
   gradientUnits="userSpaceOnUse"
   x1="162.1106"
   y1="44.644402"
   x2="319.0361"
   y2="201.5699"
   gradientTransform="translate(0,0.188)">
								<stop
   offset="0"
   style="stop-color:#3AE7E1"
   id="stop9" />
								<stop
   offset="0.9481"
   style="stop-color:#1993D2"
   id="stop10" />
							</linearGradient>
							<path
   style="fill:url(#SVGID_00000119810016000650835400000009893919275913320374_)"
   d="m 178.4,84.588 c 4.3,-7.4 12.4,-12.5 21.6,-12.5 9.2,0 17.2,5 21.6,12.5 h 3.4 c 8.4,0 16.6,1.7 24.3,5 -3.7,-24 -24.3,-42.4 -49.3,-42.4 -25,0 -45.6,18.4 -49.3,42.4 7.7,-3.3 16,-5 24.3,-5 z"
   id="path4-9" />
							<path
   class="st0"
   d="m 150.1,103.788 c 7.3,-4.3 15.8,-6.7 24.9,-6.7 0,-4.5 1.2,-8.8 3.4,-12.5 H 175 c -8.4,0 -16.6,1.7 -24.3,5 -0.4,2.4 -0.6,4.9 -0.6,7.5 z"
   id="path5-2"
   style="fill:#2d7aae" />
							<path
   class="st0"
   d="m 221.6,84.588 c 2.1,3.7 3.4,7.9 3.4,12.5 9.1,0 17.6,2.5 24.9,6.7 v -6.7 c 0,-2.5 -0.3,-5 -0.6,-7.5 -7.7,-3.3 -16,-5 -24.3,-5 z"
   id="path6-0"
   style="fill:#2d7aae" />
						</g>
						
							<linearGradient
   id="linearGradient12"
   gradientUnits="userSpaceOnUse"
   x1="117.5171"
   y1="89.228302"
   x2="274.42291"
   y2="246.13409">
							<stop
   offset="0"
   style="stop-color:#3AE7E1"
   id="stop11" />
							<stop
   offset="0.9481"
   style="stop-color:#1993D2"
   id="stop12" />
						</linearGradient>
						<path
   style="display:none;fill:url(#SVGID_00000125602670727952837290000015116344184315268780_)"
   d="m 249.9,196.6 c 0,2.2 -0.3,4.2 -0.8,6.2 15.4,-8.5 25.8,-24.9 25.8,-43.6 v -12.5 c 0,-18.4 -10,-34.5 -24.9,-43.1 -7.3,-4.3 -15.8,-6.7 -24.9,-6.7 h -49.9 c -9.1,0 -17.6,2.5 -24.9,6.7 -14.9,8.6 -24.9,24.7 -24.9,43.1 v 49.9 c 0,27.5 22.3,49.9 49.9,49.9 h 49.9 v 0 c 0,-13.8 -11.2,-24.9 -24.9,-24.9 v 0 h -24.9 c -13.8,0 -24.9,-11.2 -24.9,-24.9 v -49.9 c 0,-13.8 11.2,-24.9 24.9,-24.9 h 49.9 c 13.8,0 24.9,11.2 24.9,24.9 v 12.5 37.3 z"
   id="path7" /><path
   style="display:inline;fill:url(#SVGID_00000134226740407654928070000009802432056583808703_-7);stroke-width:0.389453"
   d="m 249.89333,196.70333 c 0,2.14271 -0.31146,4.24646 -0.81758,6.23334 15.33933,-8.49292 25.73425,-24.85542 25.73425,-43.63334 v -12.46666 c 0,-18.46625 -10.04453,-34.51709 -24.91667,-43.12688 C 242.57406,99.46333 234.04789,96.97 224.97667,96.97 h -49.83334 c -9.07122,0 -17.59739,2.49333 -24.91666,6.73979 -14.87214,8.60979 -24.91667,24.66063 -24.91667,43.12688 v 49.86666 c 0,27.54355 22.3082,49.86667 49.83333,49.86667 h 49.83334 v 0 c 0,-13.75229 -11.17357,-24.93333 -24.91667,-24.93333 v 0 h -24.91667 c -13.7431,0 -24.91666,-11.18104 -24.91666,-24.93334 v -49.86666 c 0,-13.7523 11.17356,-24.93334 24.91666,-24.93334 h 49.83334 c 13.7431,0 24.91666,11.18104 24.91666,24.93334 v 12.46666 z"
   id="path7-5-2"
   inkscape:label="path7" />
					</g>
				</g>
			</g>
		</g>
	</g></g>
</g>
</svg>
